<svg id="eWDjIcQ3hPa1" xmlns="http://www.w3.org/2000/svg" xmlns:xlink="http://www.w3.org/1999/xlink" viewBox="0 0 23.57 60.53" shape-rendering="geometricPrecision" text-rendering="geometricPrecision"><style><![CDATA[#eWDjIcQ3hPa2 {animation: eWDjIcQ3hPa2_c_o 1000ms linear infinite normal forwards}@keyframes eWDjIcQ3hPa2_c_o { 0% {opacity: 0.5} 40% {opacity: 0.5} 60% {opacity: 1} 80% {opacity: 0.5} 100% {opacity: 0.5}} #eWDjIcQ3hPa3 {animation: eWDjIcQ3hPa3_c_o 1000ms linear infinite normal forwards}@keyframes eWDjIcQ3hPa3_c_o { 0% {opacity: 0.5} 20% {opacity: 0.5} 40% {opacity: 1} 60% {opacity: 0.5} 80% {opacity: 0.5} 100% {opacity: 0.5}} #eWDjIcQ3hPa4 {animation: eWDjIcQ3hPa4_c_o 1000ms linear infinite normal forwards}@keyframes eWDjIcQ3hPa4_c_o { 0% {opacity: 1} 40% {opacity: 0.5} 60% {opacity: 0.5} 80% {opacity: 0.5} 100% {opacity: 1}}]]></style><path id="eWDjIcQ3hPa2" d="M11.72,57.42C13.21,55.93,14.61,54.53,16.03,53.14C16.76,52.42,17.77,52.57,18.19,53.43C18.46,53.98,18.34,54.49,17.93,54.9C16.2,56.65,14.46,58.39,12.7,60.12C12.13,60.68,11.45,60.67,10.88,60.12C9.12,58.39,7.38,56.65,5.65,54.9C5.08,54.32,5.11,53.57,5.67,53.04C6.21,52.52,6.95,52.54,7.54,53.13C8.81,54.38,10.06,55.65,11.32,56.92C11.45,57.06,11.56,57.23,11.72,57.42Z" opacity="0.5" fill="rgb(0,84,182)" stroke="none" stroke-width="1"/><path id="eWDjIcQ3hPa3" d="M11.72,50.57C13.21,49.08,14.61,47.68,16.03,46.29C16.76,45.57,17.77,45.72,18.19,46.58C18.46,47.13,18.34,47.64,17.93,48.05C16.2,49.8,14.46,51.54,12.7,53.27C12.13,53.83,11.45,53.82,10.88,53.27C9.12,51.54,7.38,49.8,5.65,48.05C5.08,47.47,5.11,46.72,5.67,46.19C6.21,45.67,6.95,45.69,7.54,46.28C8.81,47.53,10.06,48.8,11.32,50.07C11.45,50.21,11.56,50.38,11.72,50.57Z" opacity="0.5" fill="rgb(0,84,182)" stroke="none" stroke-width="1"/><path id="eWDjIcQ3hPa4" d="M11.75,43.43C13.28,41.88,14.67,40.45,16.09,39.04C16.78,38.36,17.71,38.51,18.16,39.36C18.43,39.88,18.37,40.38,17.98,40.79C16.21,42.59,14.44,44.37,12.64,46.13C12.11,46.65,11.41,46.61,10.86,46.07C9.09,44.32,7.34,42.57,5.6,40.8C5.07,40.26,5.12,39.53,5.67,38.98C6.18,38.48,6.89,38.47,7.44,39.01C8.74,40.29,10.02,41.58,11.31,42.87C11.45,43.01,11.56,43.19,11.75,43.43Z" fill="rgb(0,84,182)" stroke="none" stroke-width="1"/><path id="eWDjIcQ3hPa5" d="M23.56,17.78C23.56,19.66,23.57,21.53,23.56,23.41C23.54,28.9,20.11,33.43,14.83,34.92C8.63,36.69,1.92,32.8,0.41,26.54C0.18,25.57,0.04,24.55,0.03,23.55C-0.02,19.54,0,15.53,0.01,11.51C0.02,8.96,0.87,6.69,2.4,4.66C4.17,2.31,6.53,0.79,9.38,0.25C14.05,-0.64,17.98,0.81,21.01,4.51C22.77,6.66,23.52,9.18,23.56,11.92C23.58,13.88,23.56,15.83,23.56,17.78ZM20.93,17.78C20.93,17.78,20.93,17.78,20.93,17.78C20.93,15.89,20.93,13.99,20.93,12.1C20.93,10.82,20.73,9.58,20.25,8.38C18.35,3.62,12.82,1.21,8.01,3.46C4.48,5.11,2.65,7.99,2.61,11.92C2.58,15.67,2.59,19.43,2.61,23.18C2.61,23.86,2.67,24.54,2.78,25.21C3.72,30.98,10.11,34.41,15.44,31.94C18.92,30.34,20.77,27.54,20.9,23.69C20.98,21.71,20.93,19.74,20.93,17.78Z" transform="matrix(1 0 0 1 0.002498 0)" fill="rgb(0,84,182)" stroke="none" stroke-width="1"/><path id="eWDjIcQ3hPa6" d="M13.08,10.5C13.08,11.14,13.09,11.78,13.08,12.43C13.06,13.18,12.51,13.74,11.81,13.75C11.11,13.76,10.5,13.22,10.49,12.48C10.46,11.14,10.46,9.8,10.49,8.46C10.51,7.7,11.08,7.19,11.81,7.2C12.53,7.21,13.06,7.75,13.08,8.51C13.09,9.18,13.08,9.84,13.08,10.5Z" fill="rgb(0,84,182)" stroke="none" stroke-width="1"/></svg>