<svg xmlns="http://www.w3.org/2000/svg" viewBox="0 0 68.7 17.36"><defs><style>.cls-1{fill:#0055b8;}.cls-2{fill:#a8ad00;}</style></defs><g id="txt"><path class="cls-1" d="M7.38,14.06v-5A3.89,3.89,0,0,0,4.6,7.78,2.5,2.5,0,0,0,3.5,8a2.2,2.2,0,0,0-.84.79,5.14,5.14,0,0,0-.55,1.27,7.68,7.68,0,0,0-.2,1.79,5.16,5.16,0,0,0,.69,2.95,2.18,2.18,0,0,0,1.89,1A2.81,2.81,0,0,0,6,15.42,4.4,4.4,0,0,0,7.38,14.06Zm0,1.8a3.88,3.88,0,0,1-3,1.5A4.67,4.67,0,0,1,2.49,17a3.68,3.68,0,0,1-1.36-1.1,4.27,4.27,0,0,1-.84-1.74A8.32,8.32,0,0,1,0,11.89,8.09,8.09,0,0,1,.35,9.55a5.23,5.23,0,0,1,1-1.77,3.92,3.92,0,0,1,1.42-1.1,4.16,4.16,0,0,1,1.77-.4A4.09,4.09,0,0,1,7.38,7.35V2.55H9.26V17.1H7.38Z"/><path class="cls-1" d="M16.29,15.89a3.4,3.4,0,0,0,1.22-.24,2.66,2.66,0,0,0,.95-.75,3.48,3.48,0,0,0,.61-1.27,6.19,6.19,0,0,0,.23-1.77,7.45,7.45,0,0,0-.23-1.76,3.48,3.48,0,0,0-.61-1.27,2.07,2.07,0,0,0-.95-.76,3,3,0,0,0-2.43,0,2,2,0,0,0-1,.76,3.48,3.48,0,0,0-.61,1.27,6.17,6.17,0,0,0-.23,1.76,5.29,5.29,0,0,0,.23,1.77,3.48,3.48,0,0,0,.61,1.27,2,2,0,0,0,1,.75A3.34,3.34,0,0,0,16.29,15.89Zm0-9.58a5.64,5.64,0,0,1,2.06.37,4.15,4.15,0,0,1,1.56,1.1,4.56,4.56,0,0,1,1,1.74,7.91,7.91,0,0,1,.35,2.32,8.09,8.09,0,0,1-.35,2.34,5.27,5.27,0,0,1-1,1.74A4.44,4.44,0,0,1,18.35,17a5.41,5.41,0,0,1-2,.37,5.94,5.94,0,0,1-2-.35,4.19,4.19,0,0,1-1.56-1.07,5.91,5.91,0,0,1-1-1.73,8.11,8.11,0,0,1-.35-2.35,7.89,7.89,0,0,1,.35-2.31,5.18,5.18,0,0,1,1-1.74,4.26,4.26,0,0,1,1.57-1.07,4.86,4.86,0,0,1,2-.43Z"/><path class="cls-1" d="M27.61,17.36a5.9,5.9,0,0,1-2-.35A4,4,0,0,1,24,15.94a5.94,5.94,0,0,1-1-1.73,8.1,8.1,0,0,1-.34-2.35A7.88,7.88,0,0,1,23,9.55a4.57,4.57,0,0,1,1-1.74,4.15,4.15,0,0,1,1.56-1.07A5.75,5.75,0,0,1,29.2,6.6a3.1,3.1,0,0,1,1.27.66,5.59,5.59,0,0,1,.93,1.07,3.93,3.93,0,0,1,.46,1.48H30a3,3,0,0,0-.2-.84,2.07,2.07,0,0,0-.5-.61A1.6,1.6,0,0,0,28.53,8a3,3,0,0,0-.9-.15,3,3,0,0,0-1.21.26,2.72,2.72,0,0,0-1,.75,3.35,3.35,0,0,0-.6,1.28,6.9,6.9,0,0,0-.21,1.76,7,7,0,0,0,.21,1.77,3.38,3.38,0,0,0,.6,1.27,2,2,0,0,0,1,.75,3.44,3.44,0,0,0,2.08.12,3.49,3.49,0,0,0,.73-.35,2.06,2.06,0,0,0,.49-.61,1.76,1.76,0,0,0,.2-.84h1.91a3.82,3.82,0,0,1-.46,1.48,3.53,3.53,0,0,1-.93,1.07,4.18,4.18,0,0,1-1.27.67C28.68,17.28,28.16,17.36,27.61,17.36Z"/><path class="cls-1" d="M37.62,17.13a6.83,6.83,0,0,1-1.36.15,3.5,3.5,0,0,1-1.33-.21,1.84,1.84,0,0,1-.76-.61,2.43,2.43,0,0,1-.31-1A11.16,11.16,0,0,1,33.77,14V8h-1.3V6.6h1.3V4h1.88V6.6h1.74V8H35.65v6.08c0,.29,0,.61.06.9a1.41,1.41,0,0,0,.2.49.59.59,0,0,0,.32.23,2.12,2.12,0,0,0,.43.06,2.63,2.63,0,0,0,.49,0c.18,0,.32,0,.47-.06Z"/><path class="cls-1" d="M45.86,15.77a4.14,4.14,0,0,1-3.15,1.59c-2.37,0-3.56-1.3-3.56-3.88V6.57H41v6.8a4.88,4.88,0,0,0,.12,1.13,2,2,0,0,0,.34.75,1.49,1.49,0,0,0,.61.43,3,3,0,0,0,.87.15,3.66,3.66,0,0,0,2.89-1.71V6.6h1.89V17.13H45.86Z"/><path class="cls-1" d="M54.26,17.36c-2.87,0-4.37-1.13-4.55-3.41h1.88c0,1.27.87,1.91,2.64,1.91a3.8,3.8,0,0,0,1-.15,1.71,1.71,0,0,0,.72-.34,1.47,1.47,0,0,0,.47-.55,1.45,1.45,0,0,0,.17-.67,1.47,1.47,0,0,0-.12-.61,1,1,0,0,0-.46-.4,5.12,5.12,0,0,0-.92-.35l-1.57-.43c-.61-.18-1.15-.32-1.62-.47a3,3,0,0,1-1.1-.55,2.46,2.46,0,0,1-.66-.81,2.94,2.94,0,0,1-.21-1.21,2.55,2.55,0,0,1,.29-1.22A2.89,2.89,0,0,1,51,7.15a3.41,3.41,0,0,1,1.24-.64,6.28,6.28,0,0,1,1.62-.23c2.78,0,4.2,1,4.22,3H56.25c-.06-1-.81-1.48-2.23-1.48a4.26,4.26,0,0,0-.86.09,2,2,0,0,0-.7.29,1.61,1.61,0,0,0-.46.44,1.07,1.07,0,0,0-.17.6,1.26,1.26,0,0,0,.08.49.56.56,0,0,0,.38.35,5.27,5.27,0,0,0,.87.35c.4.12.92.23,1.56.4s1.19.32,1.65.47a3.78,3.78,0,0,1,1.18.61,2.34,2.34,0,0,1,.7.86A3.3,3.3,0,0,1,58.48,14a3,3,0,0,1-.29,1.33,3.35,3.35,0,0,1-.84,1.07,3.52,3.52,0,0,1-1.33.69A5.08,5.08,0,0,1,54.26,17.36Z"/><path class="cls-2" d="M64,5.73a.55.55,0,0,1-.52.55h0l.86.14Z"/><path class="cls-2" d="M64.7,7.47a.54.54,0,0,1,.52-.55h0l-.87-.15Z"/><path class="cls-1" d="M58.57,0h3a.83.83,0,0,1,.81.81v3a.83.83,0,0,1-.81.81h-3a.83.83,0,0,1-.81-.81v-3A.83.83,0,0,1,58.57,0Z"/><path class="cls-2" d="M68.7,6.11a.81.81,0,0,1-.79.81H64.85A.8.8,0,0,1,64,6.13V3.07a.79.79,0,0,1,.78-.81h3.07a.83.83,0,0,1,.81.81Z"/><path class="cls-2" d="M64.7,10.13a.81.81,0,0,1-.78.81H60.85a.81.81,0,0,1-.81-.78V7.09a.81.81,0,0,1,.78-.81h3.07a.83.83,0,0,1,.81.81Z"/></g></svg>